<?xml version="1.0" encoding="UTF-8"?>
<svg xmlns="http://www.w3.org/2000/svg" xmlns:xlink="http://www.w3.org/1999/xlink" width="20pt" height="20pt" viewBox="0 0 20 20" version="1.1">
<g id="surface1">
<path style=" stroke:none;fill-rule:nonzero;fill:rgb(98.431373%,47.843137%,14.117647%);fill-opacity:1;" d="M 10.011719 0 C 12.609375 0 15.210938 0 17.808594 0 C 18.136719 0 18.460938 0.0273438 18.773438 0.121094 C 19.449219 0.328125 19.808594 0.808594 19.953125 1.46875 C 20.007812 1.734375 20.023438 2 20.023438 2.269531 C 20.027344 4.066406 20.03125 5.863281 20.03125 7.664062 C 20.03125 10.9375 20.03125 14.214844 20.023438 17.488281 C 20.023438 17.945312 20 18.410156 19.769531 18.828125 C 19.515625 19.292969 19.167969 19.65625 18.640625 19.820312 C 18.542969 19.847656 18.445312 19.882812 18.347656 19.882812 C 18.121094 19.882812 17.902344 19.9375 17.675781 19.9375 C 12.585938 19.9375 7.492188 19.9375 2.402344 19.929688 C 1.988281 19.929688 1.566406 19.902344 1.175781 19.734375 C 1.097656 19.703125 1.015625 19.671875 0.949219 19.621094 C 0.449219 19.246094 0.109375 18.773438 0.0351562 18.140625 C 0.0078125 17.910156 0 17.679688 0 17.453125 C 0 12.355469 0 7.257812 0.00390625 2.164062 C 0.00390625 1.867188 0.0078125 1.566406 0.0976562 1.28125 C 0.34375 0.527344 0.882812 0.117188 1.675781 0.0351562 C 1.863281 0.015625 2.046875 0 2.234375 0 C 4.824219 0 7.417969 0 10.011719 0 Z M 10.09375 12.683594 C 10.144531 12.984375 10.191406 13.246094 10.28125 13.5 C 10.84375 15.054688 12.511719 16.339844 14.691406 15.820312 C 16.25 15.449219 17.382812 14.03125 17.433594 12.453125 C 17.457031 11.695312 17.273438 10.996094 16.859375 10.359375 C 16.785156 10.25 16.78125 10.167969 16.835938 10.046875 C 17.089844 9.511719 17.265625 8.949219 17.359375 8.367188 C 17.453125 7.78125 17.472656 7.195312 17.359375 6.609375 C 17.089844 5.222656 15.660156 3.726562 13.726562 3.746094 C 11.824219 3.761719 10.480469 5.179688 10.1875 6.535156 C 10.152344 6.695312 10.125 6.863281 10.089844 7.0625 C 10.0625 6.953125 10.042969 6.878906 10.03125 6.804688 C 9.804688 5.3125 8.363281 3.988281 6.804688 3.84375 C 5.035156 3.675781 3.710938 4.671875 3.109375 5.847656 C 2.902344 6.246094 2.792969 6.675781 2.757812 7.121094 C 2.691406 7.957031 2.875 8.734375 3.347656 9.433594 C 3.402344 9.515625 3.402344 9.582031 3.359375 9.664062 C 3.050781 10.253906 2.851562 10.882812 2.785156 11.542969 C 2.71875 12.160156 2.703125 12.78125 2.878906 13.386719 C 3.371094 15.0625 5.007812 16.140625 6.78125 15.949219 C 8.28125 15.785156 9.28125 14.96875 9.871094 13.625 C 9.996094 13.335938 10.035156 13.027344 10.09375 12.683594 Z M 10.09375 12.683594 "/>
<path style=" stroke:none;fill-rule:nonzero;fill:rgb(100%,100%,100%);fill-opacity:1;" d="M 10.09375 12.683594 C 10.035156 13.027344 9.996094 13.335938 9.871094 13.625 C 9.28125 14.96875 8.28125 15.785156 6.78125 15.949219 C 5.007812 16.140625 3.371094 15.0625 2.878906 13.386719 C 2.703125 12.78125 2.71875 12.160156 2.785156 11.542969 C 2.851562 10.882812 3.050781 10.253906 3.359375 9.664062 C 3.402344 9.582031 3.402344 9.515625 3.347656 9.433594 C 2.875 8.734375 2.691406 7.957031 2.757812 7.121094 C 2.792969 6.675781 2.902344 6.246094 3.109375 5.847656 C 3.710938 4.671875 5.035156 3.675781 6.804688 3.84375 C 8.363281 3.988281 9.804688 5.3125 10.03125 6.804688 C 10.042969 6.878906 10.0625 6.953125 10.089844 7.0625 C 10.125 6.863281 10.152344 6.699219 10.1875 6.535156 C 10.480469 5.179688 11.824219 3.761719 13.726562 3.746094 C 15.660156 3.726562 17.089844 5.222656 17.359375 6.609375 C 17.472656 7.195312 17.453125 7.78125 17.359375 8.367188 C 17.265625 8.949219 17.089844 9.511719 16.835938 10.046875 C 16.78125 10.167969 16.785156 10.25 16.859375 10.359375 C 17.273438 10.996094 17.457031 11.695312 17.433594 12.453125 C 17.382812 14.03125 16.25 15.449219 14.691406 15.820312 C 12.511719 16.339844 10.84375 15.054688 10.28125 13.5 C 10.191406 13.246094 10.144531 12.984375 10.09375 12.683594 Z M 14.050781 9.90625 C 14.074219 9.816406 14.144531 9.761719 14.191406 9.695312 C 14.738281 8.980469 15.027344 8.179688 14.960938 7.28125 C 14.914062 6.625 14.367188 6.160156 13.703125 6.1875 C 13.039062 6.210938 12.539062 6.714844 12.53125 7.371094 C 12.53125 7.421875 12.535156 7.476562 12.53125 7.53125 C 12.484375 8.226562 12.09375 8.609375 11.503906 8.652344 C 11.394531 8.660156 11.285156 8.671875 11.179688 8.671875 C 10.410156 8.671875 9.640625 8.671875 8.875 8.671875 C 8.539062 8.671875 8.207031 8.707031 7.886719 8.804688 C 6.394531 9.257812 5.527344 10.261719 5.238281 11.761719 C 5.179688 12.058594 5.128906 12.367188 5.226562 12.671875 C 5.371094 13.109375 5.632812 13.433594 6.101562 13.542969 C 6.582031 13.652344 7.003906 13.527344 7.339844 13.15625 C 7.554688 12.914062 7.625 12.625 7.640625 12.308594 C 7.683594 11.496094 8.132812 11.089844 8.878906 11.097656 C 10.027344 11.105469 11.175781 11.097656 12.324219 11.097656 C 12.527344 11.097656 12.53125 11.101562 12.53125 11.300781 C 12.53125 11.667969 12.519531 12.035156 12.535156 12.402344 C 12.558594 13 13.09375 13.496094 13.710938 13.515625 C 14.351562 13.535156 14.921875 13.066406 14.960938 12.460938 C 14.996094 11.933594 14.996094 11.402344 14.960938 10.878906 C 14.933594 10.46875 14.710938 10.179688 14.332031 10.011719 C 14.238281 9.96875 14.144531 9.941406 14.050781 9.90625 Z M 6.851562 8.667969 C 7.097656 8.667969 7.300781 8.667969 7.503906 8.671875 C 7.601562 8.671875 7.640625 8.628906 7.636719 8.53125 C 7.636719 8.152344 7.65625 7.769531 7.628906 7.386719 C 7.597656 6.886719 7.328125 6.523438 6.851562 6.339844 C 6.367188 6.152344 5.921875 6.257812 5.546875 6.613281 C 5.167969 6.96875 5.117188 7.402344 5.25 7.878906 C 5.371094 8.316406 5.65625 8.566406 6.109375 8.640625 C 6.371094 8.683594 6.636719 8.664062 6.851562 8.667969 Z M 6.851562 8.667969 "/>
<path style=" stroke:none;fill-rule:nonzero;fill:rgb(98.431373%,47.843137%,14.117647%);fill-opacity:1;" d="M 14.050781 9.90625 C 14.144531 9.941406 14.238281 9.96875 14.332031 10.011719 C 14.710938 10.179688 14.933594 10.46875 14.960938 10.878906 C 14.996094 11.402344 14.996094 11.933594 14.960938 12.460938 C 14.921875 13.066406 14.351562 13.535156 13.710938 13.515625 C 13.09375 13.496094 12.558594 13 12.535156 12.402344 C 12.519531 12.035156 12.53125 11.667969 12.53125 11.300781 C 12.53125 11.101562 12.527344 11.097656 12.324219 11.097656 C 11.175781 11.097656 10.027344 11.105469 8.878906 11.097656 C 8.132812 11.089844 7.683594 11.496094 7.640625 12.308594 C 7.625 12.625 7.554688 12.914062 7.339844 13.15625 C 7.003906 13.527344 6.582031 13.652344 6.101562 13.542969 C 5.632812 13.433594 5.371094 13.109375 5.226562 12.671875 C 5.128906 12.367188 5.179688 12.058594 5.238281 11.761719 C 5.527344 10.261719 6.394531 9.257812 7.886719 8.804688 C 8.207031 8.707031 8.539062 8.671875 8.875 8.671875 C 9.640625 8.671875 10.410156 8.671875 11.179688 8.671875 C 11.285156 8.671875 11.394531 8.660156 11.503906 8.652344 C 12.09375 8.609375 12.484375 8.226562 12.53125 7.53125 C 12.535156 7.476562 12.53125 7.421875 12.53125 7.371094 C 12.539062 6.714844 13.039062 6.210938 13.703125 6.1875 C 14.367188 6.160156 14.914062 6.625 14.960938 7.28125 C 15.027344 8.179688 14.738281 8.980469 14.191406 9.695312 C 14.144531 9.761719 14.074219 9.816406 14.050781 9.90625 Z M 14.050781 9.90625 "/>
<path style=" stroke:none;fill-rule:nonzero;fill:rgb(98.431373%,47.843137%,14.117647%);fill-opacity:1;" d="M 6.851562 8.667969 C 6.632812 8.664062 6.371094 8.683594 6.109375 8.640625 C 5.65625 8.566406 5.371094 8.316406 5.25 7.878906 C 5.117188 7.402344 5.167969 6.96875 5.546875 6.613281 C 5.921875 6.257812 6.367188 6.152344 6.851562 6.339844 C 7.328125 6.523438 7.597656 6.886719 7.628906 7.386719 C 7.65625 7.769531 7.636719 8.152344 7.636719 8.53125 C 7.640625 8.628906 7.601562 8.671875 7.503906 8.671875 C 7.300781 8.667969 7.097656 8.667969 6.851562 8.667969 Z M 6.851562 8.667969 "/>
</g>
</svg>
