<?xml version="1.0" encoding="UTF-8" standalone="no"?>
<!DOCTYPE svg PUBLIC "-//W3C//DTD SVG 1.1//EN" "http://www.w3.org/Graphics/SVG/1.1/DTD/svg11.dtd">
<svg version="1.1" xmlns="http://www.w3.org/2000/svg" xmlns:xlink="http://www.w3.org/1999/xlink" preserveAspectRatio="xMidYMid meet" viewBox="0 0 25 25" width="25" height="25"><defs><path d="M22.15 0C22.56 0 22.96 0.04 23.34 0.15C24.18 0.41 24.63 1.01 24.8 1.84C24.87 2.17 24.89 2.51 24.89 2.84C24.9 5.1 24.9 7.35 24.9 9.61C24.9 13.72 24.9 17.82 24.9 21.93C24.89 22.5 24.86 23.09 24.58 23.61C24.26 24.19 23.83 24.65 23.18 24.85C23.06 24.89 22.94 24.93 22.82 24.93C22.54 24.93 22.27 25 21.99 25C15.68 25 9.38 25 3.07 24.99C2.56 24.99 2.04 24.95 1.55 24.75C1.45 24.7 1.36 24.67 1.27 24.6C0.65 24.13 0.23 23.54 0.14 22.74C0.11 22.46 0.1 22.17 0.1 21.88C0.1 15.49 0.1 9.1 0.1 2.71C0.1 2.34 0.11 1.96 0.22 1.61C0.52 0.66 1.19 0.15 2.17 0.04C2.4 0.02 2.63 0 2.86 0C6.07 0 9.28 0 12.49 0C15.71 0 18.93 0 22.15 0Z" id="e6Q3Ra62PN"></path><path d="M18.13 4.81L18.61 4.96L19.07 5.16L19.5 5.4L19.9 5.68L20.26 5.99L20.58 6.34L20.87 6.7L21.11 7.09L21.31 7.48L21.46 7.88L21.56 8.29L21.59 8.46L21.61 8.63L21.63 8.8L21.64 8.96L21.65 9.13L21.66 9.3L21.65 9.47L21.65 9.64L21.64 9.81L21.62 9.98L21.61 10.15L21.59 10.32L21.56 10.49L21.53 10.66L21.5 10.83L21.46 10.99L21.42 11.16L21.38 11.32L21.34 11.49L21.29 11.65L21.23 11.81L21.18 11.97L21.12 12.13L21.05 12.29L20.98 12.44L20.91 12.6L20.9 12.63L20.89 12.67L20.88 12.7L20.87 12.73L20.87 12.76L20.87 12.79L20.87 12.81L20.87 12.84L20.88 12.87L20.89 12.9L20.9 12.93L20.92 12.96L20.94 12.99L21.05 13.18L21.16 13.37L21.25 13.56L21.33 13.75L21.41 13.95L21.47 14.15L21.53 14.35L21.57 14.55L21.61 14.76L21.63 14.97L21.65 15.18L21.65 15.4L21.65 15.61L21.61 16.07L21.53 16.51L21.41 16.94L21.24 17.35L21.03 17.75L20.79 18.12L20.51 18.47L20.21 18.78L19.87 19.07L19.5 19.32L19.11 19.54L18.7 19.71L18.26 19.84L17.65 19.95L17.06 19.98L16.51 19.95L15.97 19.85L15.47 19.69L15.01 19.48L14.57 19.22L14.18 18.92L13.82 18.58L13.5 18.2L13.22 17.8L12.99 17.37L12.81 16.93L12.78 16.86L12.76 16.78L12.74 16.71L12.72 16.63L12.7 16.55L12.68 16.48L12.67 16.4L12.65 16.32L12.64 16.24L12.62 16.16L12.61 16.07L12.59 15.99L12.58 15.9L12.56 16L12.54 16.1L12.53 16.19L12.51 16.29L12.5 16.38L12.48 16.47L12.46 16.57L12.44 16.65L12.42 16.74L12.39 16.83L12.36 16.92L12.33 17L12.3 17.08L12.12 17.46L11.93 17.81L11.71 18.14L11.48 18.45L11.23 18.73L10.96 18.98L10.67 19.21L10.35 19.41L10.02 19.58L9.67 19.73L9.3 19.85L8.9 19.94L8.48 20L7.98 20.03L7.49 20L7.01 19.92L6.54 19.79L6.1 19.62L5.68 19.4L5.28 19.13L4.92 18.83L4.59 18.49L4.29 18.11L4.03 17.7L3.82 17.26L3.66 16.79L3.61 16.61L3.57 16.43L3.54 16.26L3.52 16.08L3.5 15.9L3.49 15.72L3.48 15.55L3.48 15.37L3.49 15.19L3.5 15.01L3.51 14.83L3.52 14.65L3.54 14.47L3.56 14.28L3.59 14.09L3.62 13.91L3.66 13.72L3.71 13.54L3.76 13.35L3.81 13.17L3.87 12.99L3.94 12.82L4.01 12.64L4.08 12.46L4.16 12.29L4.25 12.12L4.26 12.1L4.27 12.07L4.28 12.05L4.28 12.03L4.29 12.01L4.29 11.98L4.29 11.96L4.28 11.94L4.28 11.92L4.27 11.9L4.26 11.88L4.25 11.85L4.23 11.83L4.11 11.63L3.99 11.42L3.89 11.21L3.79 10.99L3.72 10.78L3.65 10.56L3.59 10.33L3.55 10.11L3.52 9.88L3.5 9.64L3.49 9.41L3.49 9.17L3.51 8.93L3.52 8.8L3.53 8.67L3.55 8.55L3.57 8.42L3.6 8.29L3.63 8.17L3.66 8.05L3.7 7.93L3.74 7.8L3.78 7.68L3.83 7.57L3.88 7.45L3.94 7.33L4.13 7L4.35 6.67L4.59 6.36L4.87 6.07L5.18 5.8L5.51 5.56L5.87 5.34L6.25 5.16L6.66 5L7.09 4.89L7.54 4.82L8.02 4.8L8.51 4.82L8.95 4.89L9.39 5L9.81 5.17L10.21 5.37L10.59 5.61L10.95 5.89L11.29 6.2L11.59 6.54L11.86 6.9L12.08 7.29L12.27 7.69L12.41 8.1L12.5 8.53L12.5 8.55L12.51 8.57L12.51 8.6L12.52 8.62L12.52 8.64L12.53 8.66L12.53 8.69L12.55 8.77L12.56 8.79L12.56 8.82L12.57 8.86L12.58 8.8L12.59 8.74L12.6 8.69L12.61 8.64L12.62 8.58L12.63 8.53L12.64 8.48L12.65 8.43L12.66 8.38L12.67 8.34L12.67 8.29L12.68 8.24L12.69 8.19L12.8 7.8L12.95 7.41L13.14 7.03L13.38 6.66L13.65 6.3L13.96 5.97L14.31 5.67L14.69 5.4L15.11 5.16L15.56 4.97L16.03 4.82L16.54 4.73L17.07 4.7L17.61 4.72L18.13 4.81ZM16.47 7.89L16.22 8.02L16.01 8.2L15.84 8.42L15.71 8.67L15.62 8.94L15.59 9.24L15.59 9.27L15.59 9.29L15.59 9.34L15.59 9.37L15.59 9.39L15.59 9.42L15.59 9.44L15.55 9.75L15.47 10.02L15.36 10.26L15.21 10.45L15.03 10.61L14.82 10.73L14.58 10.81L14.32 10.85L14.27 10.85L14.22 10.86L14.17 10.86L14.12 10.86L14.07 10.87L14.02 10.87L13.97 10.87L13.92 10.87L13.56 10.87L13.21 10.87L12.85 10.87L12.49 10.87L12.14 10.87L11.78 10.87L11.42 10.87L11.07 10.87L10.91 10.88L10.76 10.88L10.6 10.89L10.45 10.91L10.3 10.93L10.15 10.96L10 11L9.85 11.04L9.19 11.29L8.61 11.6L8.09 11.97L7.65 12.4L7.28 12.9L6.98 13.46L6.74 14.07L6.57 14.75L6.55 14.89L6.52 15.03L6.51 15.17L6.49 15.31L6.49 15.46L6.5 15.6L6.52 15.75L6.56 15.89L6.63 16.09L6.72 16.27L6.83 16.44L6.95 16.59L7.09 16.72L7.25 16.83L7.43 16.92L7.64 16.98L7.86 17.02L8.07 17.03L8.28 17.01L8.47 16.97L8.66 16.89L8.84 16.79L9.01 16.66L9.17 16.49L9.26 16.38L9.34 16.26L9.4 16.13L9.45 16L9.49 15.86L9.51 15.72L9.53 15.58L9.54 15.43L9.59 15.08L9.67 14.77L9.81 14.5L9.98 14.29L10.2 14.12L10.45 14L10.75 13.93L11.08 13.91L11.61 13.92L12.14 13.92L12.67 13.92L13.21 13.92L13.74 13.92L14.27 13.92L14.8 13.92L15.33 13.92L15.42 13.92L15.48 13.92L15.53 13.93L15.56 13.95L15.58 13.98L15.58 14.03L15.59 14.09L15.59 14.17L15.59 14.34L15.59 14.52L15.59 14.69L15.59 14.86L15.59 15.03L15.59 15.21L15.59 15.38L15.6 15.55L15.64 15.83L15.73 16.08L15.87 16.32L16.05 16.52L16.26 16.69L16.5 16.83L16.77 16.91L17.05 16.95L17.34 16.93L17.62 16.86L17.87 16.74L18.1 16.58L18.29 16.38L18.44 16.16L18.55 15.9L18.6 15.62L18.61 15.38L18.62 15.13L18.63 14.88L18.63 14.63L18.63 14.38L18.62 14.14L18.61 13.89L18.59 13.64L18.57 13.45L18.52 13.28L18.46 13.13L18.37 12.98L18.26 12.85L18.13 12.74L17.98 12.64L17.82 12.55L17.77 12.53L17.73 12.52L17.69 12.5L17.64 12.48L17.6 12.47L17.56 12.45L17.51 12.44L17.47 12.42L17.48 12.38L17.5 12.34L17.52 12.31L17.54 12.28L17.57 12.25L17.6 12.22L17.62 12.19L17.65 12.16L17.88 11.82L18.09 11.46L18.26 11.1L18.4 10.73L18.51 10.35L18.58 9.95L18.61 9.55L18.6 9.13L18.55 8.83L18.44 8.56L18.3 8.33L18.1 8.12L17.88 7.96L17.62 7.84L17.34 7.77L17.04 7.76L16.74 7.8L16.47 7.89ZM7.32 8.02L6.95 8.29L6.68 8.64L6.53 9.03L6.51 9.44L6.59 9.88L6.74 10.25L6.97 10.53L7.27 10.72L7.65 10.83L7.89 10.86L8.13 10.87L8.36 10.87L8.57 10.87L8.79 10.87L8.99 10.87L9.18 10.87L9.37 10.87L9.45 10.86L9.5 10.83L9.53 10.78L9.54 10.7L9.54 10.34L9.55 9.98L9.54 9.62L9.53 9.26L9.45 8.82L9.25 8.46L8.96 8.16L8.57 7.95L8.13 7.84L7.71 7.87L7.32 8.02Z" id="c1UWIqLEjg"></path><path d="M24.9 0C24.9 0 24.9 0 24.9 0C24.9 15 24.9 23.33 24.9 25C24.9 25 24.9 25 24.9 25C10.02 25 1.75 25 0.1 25C0.1 25 0.1 25 0.1 25C0.1 10 0.1 1.67 0.1 0C0.1 0 0.1 0 0.1 0C14.98 0 23.25 0 24.9 0Z" id="b15ZjGqgWb"></path></defs><g><g><g><use xlink:href="#e6Q3Ra62PN" opacity="1" fill="#4b4b4b" fill-opacity="1"></use><g><use xlink:href="#e6Q3Ra62PN" opacity="1" fill-opacity="0" stroke="#000000" stroke-width="1" stroke-opacity="0"></use></g></g><g><use xlink:href="#c1UWIqLEjg" opacity="1" fill="#ffffff" fill-opacity="1"></use><g><use xlink:href="#c1UWIqLEjg" opacity="1" fill-opacity="0" stroke="#000000" stroke-width="1" stroke-opacity="0"></use></g></g><g><use xlink:href="#b15ZjGqgWb" opacity="1" fill="#000000" fill-opacity="0"></use><g><use xlink:href="#b15ZjGqgWb" opacity="1" fill-opacity="0" stroke="#000000" stroke-width="1" stroke-opacity="0"></use></g></g></g></g></svg>